<svg width="401" height="232" viewBox="0 0 401 232" fill="none" xmlns="http://www.w3.org/2000/svg">
<path d="M185.684 220.116C185.093 220.116 184.512 219.962 183.998 219.67L86.5349 164.57C85.7425 164.121 85.1606 163.376 84.9169 162.498C84.6732 161.621 84.7876 160.682 85.2349 159.889L161.999 24.11C162.221 23.7171 162.518 23.3718 162.873 23.0939C163.229 22.8159 163.635 22.6107 164.07 22.49C164.505 22.3693 164.959 22.3354 165.407 22.3903C165.855 22.4452 166.287 22.5878 166.68 22.8099L264.143 77.9099C264.935 78.359 265.517 79.1041 265.761 79.9816C266.005 80.8592 265.89 81.7976 265.443 82.5909L188.679 218.372C188.458 218.766 188.161 219.111 187.806 219.389C187.45 219.667 187.043 219.872 186.608 219.992C186.307 220.075 185.996 220.117 185.684 220.116Z" fill="#D8BCBC"/>
<path d="M159.282 29.4261L158.89 30.119L261.895 88.3537L262.287 87.6607L159.282 29.4261Z" fill="white"/>
<path d="M152.232 41.8951L151.84 42.588L254.845 100.823L255.236 100.13L152.232 41.8951Z" fill="white"/>
<path d="M145.182 54.3651L144.79 55.058L247.795 113.293L248.186 112.6L145.182 54.3651Z" fill="white"/>
<path d="M138.131 66.8341L137.74 67.527L240.745 125.762L241.136 125.069L138.131 66.8341Z" fill="white"/>
<path d="M131.083 79.304L130.691 79.9969L233.696 138.232L234.088 137.539L131.083 79.304Z" fill="white"/>
<path d="M124.033 91.773L123.641 92.4659L226.646 150.701L227.038 150.008L124.033 91.773Z" fill="white"/>
<path d="M116.983 104.242L116.591 104.935L219.596 163.17L219.987 162.477L116.983 104.242Z" fill="white"/>
<path d="M109.933 116.712L109.541 117.405L212.546 175.64L212.937 174.947L109.933 116.712Z" fill="white"/>
<path d="M102.884 129.181L102.492 129.874L205.497 188.109L205.889 187.416L102.884 129.181Z" fill="white"/>
<path d="M95.8336 141.651L95.4419 142.344L198.447 200.579L198.839 199.886L95.8336 141.651Z" fill="white"/>
<path d="M88.7836 154.12L88.3918 154.813L191.397 213.048L191.788 212.355L88.7836 154.12Z" fill="white"/>
<path d="M176.618 199.467C176.027 199.467 175.446 199.313 174.932 199.021L77.4687 143.921C76.6764 143.472 76.0945 142.727 75.8508 141.849C75.607 140.972 75.7214 140.033 76.1687 139.24L152.933 3.461C153.155 3.06817 153.452 2.72291 153.807 2.44495C154.162 2.16699 154.569 1.96178 155.004 1.84105C155.439 1.72033 155.893 1.68644 156.341 1.74134C156.788 1.79624 157.221 1.93885 157.614 2.16102L255.077 57.261C255.869 57.7101 256.451 58.4551 256.695 59.3327C256.938 60.2102 256.824 61.1487 256.377 61.942L179.613 197.717C179.392 198.111 179.095 198.456 178.739 198.734C178.384 199.013 177.977 199.217 177.542 199.337C177.241 199.422 176.93 199.466 176.618 199.467Z" fill="#EFDCDC"/>
<path d="M150.215 8.77509L149.823 9.46802L252.828 67.7027L253.219 67.0097L150.215 8.77509Z" fill="white"/>
<path d="M143.165 21.2441L142.773 21.937L245.778 80.1717L246.17 79.4787L143.165 21.2441Z" fill="white"/>
<path d="M136.116 33.7131L135.724 34.406L238.729 92.6407L239.121 91.9477L136.116 33.7131Z" fill="white"/>
<path d="M129.066 46.1831L128.674 46.876L231.679 105.111L232.07 104.418L129.066 46.1831Z" fill="white"/>
<path d="M122.016 58.652L121.624 59.345L224.629 117.58L225.02 116.887L122.016 58.652Z" fill="white"/>
<path d="M114.965 71.122L114.574 71.8149L217.579 130.05L217.97 129.357L114.965 71.122Z" fill="white"/>
<path d="M107.917 83.591L107.525 84.2839L210.53 142.519L210.922 141.826L107.917 83.591Z" fill="white"/>
<path d="M100.867 96.0611L100.475 96.754L203.48 154.989L203.871 154.296L100.867 96.0611Z" fill="white"/>
<path d="M93.8166 108.53L93.4248 109.223L196.43 167.458L196.821 166.765L93.8166 108.53Z" fill="white"/>
<path d="M86.7675 120.999L86.3757 121.692L189.381 179.927L189.772 179.234L86.7675 120.999Z" fill="white"/>
<path d="M79.7177 133.469L79.3259 134.162L182.331 192.397L182.723 191.704L79.7177 133.469Z" fill="white"/>
<path d="M166.905 0.890991H11.1438V217.479H166.905C167.182 217.479 167.456 217.424 167.712 217.318C167.968 217.212 168.201 217.057 168.397 216.861C168.593 216.665 168.748 216.432 168.854 216.176C168.96 215.92 169.015 215.646 169.015 215.369V3.00099C169.015 2.7239 168.96 2.44952 168.854 2.19353C168.748 1.93753 168.593 1.70493 168.397 1.509C168.201 1.31307 167.968 1.15764 167.712 1.05161C167.456 0.945568 167.182 0.890991 166.905 0.890991ZM19.9338 211.502C19.1688 211.502 18.4209 211.275 17.7849 210.85C17.1488 210.425 16.653 209.821 16.3602 209.114C16.0675 208.407 15.9909 207.63 16.1401 206.879C16.2894 206.129 16.6578 205.44 17.1987 204.899C17.7397 204.358 18.4289 203.99 19.1792 203.84C19.9295 203.691 20.7072 203.768 21.414 204.06C22.1208 204.353 22.7249 204.849 23.1499 205.485C23.5749 206.121 23.8018 206.869 23.8018 207.634C23.8018 208.66 23.3943 209.644 22.6689 210.369C21.9435 211.094 20.9596 211.502 19.9338 211.502ZM19.9338 191.812C19.1688 191.812 18.4209 191.585 17.7849 191.16C17.1488 190.735 16.653 190.131 16.3602 189.424C16.0675 188.717 15.9909 187.94 16.1401 187.189C16.2894 186.439 16.6578 185.75 17.1987 185.209C17.7397 184.668 18.4289 184.3 19.1792 184.15C19.9295 184.001 20.7072 184.078 21.414 184.37C22.1208 184.663 22.7249 185.159 23.1499 185.795C23.5749 186.431 23.8018 187.179 23.8018 187.944C23.8018 188.97 23.3943 189.954 22.6689 190.679C21.9435 191.404 20.9596 191.812 19.9338 191.812ZM19.9338 172.122C19.1688 172.122 18.4209 171.895 17.7849 171.47C17.1488 171.045 16.653 170.441 16.3602 169.734C16.0675 169.027 15.9909 168.25 16.1401 167.499C16.2894 166.749 16.6578 166.06 17.1987 165.519C17.7397 164.978 18.4289 164.61 19.1792 164.46C19.9295 164.311 20.7072 164.388 21.414 164.68C22.1208 164.973 22.7249 165.469 23.1499 166.105C23.5749 166.741 23.8018 167.489 23.8018 168.254C23.8018 169.28 23.3943 170.264 22.6689 170.989C21.9435 171.714 20.9596 172.122 19.9338 172.122ZM19.9338 152.432C19.1688 152.432 18.4209 152.205 17.7849 151.78C17.1488 151.355 16.653 150.751 16.3602 150.044C16.0675 149.337 15.9909 148.56 16.1401 147.809C16.2894 147.059 16.6578 146.37 17.1987 145.829C17.7397 145.288 18.4289 144.92 19.1792 144.77C19.9295 144.621 20.7072 144.698 21.414 144.99C22.1208 145.283 22.7249 145.779 23.1499 146.415C23.5749 147.051 23.8018 147.799 23.8018 148.564C23.8018 149.59 23.3943 150.574 22.6689 151.299C21.9435 152.024 20.9596 152.432 19.9338 152.432ZM19.9338 132.742C19.1688 132.742 18.4209 132.515 17.7849 132.09C17.1488 131.665 16.653 131.061 16.3602 130.354C16.0675 129.647 15.9909 128.87 16.1401 128.119C16.2894 127.369 16.6578 126.68 17.1987 126.139C17.7397 125.598 18.4289 125.23 19.1792 125.08C19.9295 124.931 20.7072 125.008 21.414 125.3C22.1208 125.593 22.7249 126.089 23.1499 126.725C23.5749 127.361 23.8018 128.109 23.8018 128.874C23.8018 129.9 23.3943 130.884 22.6689 131.609C21.9435 132.334 20.9596 132.742 19.9338 132.742ZM19.9338 113.052C19.1688 113.052 18.4209 112.825 17.7849 112.4C17.1488 111.975 16.653 111.371 16.3602 110.664C16.0675 109.957 15.9909 109.18 16.1401 108.429C16.2894 107.679 16.6578 106.99 17.1987 106.449C17.7397 105.908 18.4289 105.54 19.1792 105.39C19.9295 105.241 20.7072 105.318 21.414 105.61C22.1208 105.903 22.7249 106.399 23.1499 107.035C23.5749 107.671 23.8018 108.419 23.8018 109.184C23.8018 110.21 23.3943 111.194 22.6689 111.919C21.9435 112.644 20.9596 113.052 19.9338 113.052ZM19.9338 93.362C19.1688 93.362 18.4209 93.1351 17.7849 92.7101C17.1488 92.2851 16.653 91.681 16.3602 90.9742C16.0675 90.2674 15.9909 89.4897 16.1401 88.7394C16.2894 87.9891 16.6578 87.2998 17.1987 86.7589C17.7397 86.2179 18.4289 85.8495 19.1792 85.7003C19.9295 85.5511 20.7072 85.6277 21.414 85.9204C22.1208 86.2132 22.7249 86.709 23.1499 87.345C23.5749 87.9811 23.8018 88.729 23.8018 89.494C23.8018 90.5199 23.3943 91.5037 22.6689 92.2291C21.9435 92.9545 20.9596 93.362 19.9338 93.362ZM19.9338 73.672C19.1688 73.672 18.4209 73.4451 17.7849 73.0201C17.1488 72.5951 16.653 71.991 16.3602 71.2842C16.0675 70.5774 15.9909 69.7997 16.1401 69.0494C16.2894 68.2991 16.6578 67.6098 17.1987 67.0689C17.7397 66.5279 18.4289 66.1596 19.1792 66.0103C19.9295 65.8611 20.7072 65.9377 21.414 66.2304C22.1208 66.5232 22.7249 67.019 23.1499 67.655C23.5749 68.2911 23.8018 69.039 23.8018 69.804C23.8018 70.8299 23.3943 71.8137 22.6689 72.5391C21.9435 73.2645 20.9596 73.672 19.9338 73.672ZM19.9338 53.982C19.1688 53.982 18.4209 53.7551 17.7849 53.3301C17.1488 52.9051 16.653 52.301 16.3602 51.5942C16.0675 50.8874 15.9909 50.1097 16.1401 49.3594C16.2894 48.6091 16.6578 47.9198 17.1987 47.3789C17.7397 46.8379 18.4289 46.4696 19.1792 46.3203C19.9295 46.1711 20.7072 46.2477 21.414 46.5404C22.1208 46.8332 22.7249 47.329 23.1499 47.965C23.5749 48.6011 23.8018 49.349 23.8018 50.114C23.8018 51.1399 23.3943 52.1237 22.6689 52.8491C21.9435 53.5745 20.9596 53.982 19.9338 53.982ZM19.9338 34.292C19.1688 34.292 18.4209 34.0651 17.7849 33.6401C17.1488 33.2151 16.653 32.611 16.3602 31.9042C16.0675 31.1974 15.9909 30.4197 16.1401 29.6694C16.2894 28.9191 16.6578 28.2299 17.1987 27.6889C17.7397 27.148 18.4289 26.7796 19.1792 26.6303C19.9295 26.4811 20.7072 26.5577 21.414 26.8504C22.1208 27.1432 22.7249 27.639 23.1499 28.2751C23.5749 28.9111 23.8018 29.659 23.8018 30.424C23.8018 31.4499 23.3943 32.4337 22.6689 33.1591C21.9435 33.8845 20.9596 34.292 19.9338 34.292ZM19.9338 14.602C19.1688 14.602 18.4209 14.3751 17.7849 13.9501C17.1488 13.5251 16.653 12.921 16.3602 12.2142C16.0675 11.5074 15.9909 10.7297 16.1401 9.97939C16.2894 9.22907 16.6578 8.53985 17.1987 7.9989C17.7397 7.45795 18.4289 7.08957 19.1792 6.94032C19.9295 6.79108 20.7072 6.86767 21.414 7.16043C22.1208 7.45319 22.7249 7.94896 23.1499 8.58505C23.5749 9.22114 23.8018 9.96898 23.8018 10.734C23.8018 11.7599 23.3943 12.7437 22.6689 13.4691C21.9435 14.1945 20.9596 14.602 19.9338 14.602Z" fill="#3F3D56"/>
<path d="M11.1438 12.8459C10.0998 12.8459 0.943848 12.797 0.943848 11.088C0.943848 9.37895 10.0968 9.32996 11.1438 9.32996V10.03C5.75284 10.03 2.25684 10.6299 1.69484 11.0849C2.25784 11.5359 5.75384 12.14 11.1438 12.14C16.5338 12.14 20.0148 11.54 20.5898 11.088C20.3168 10.895 19.1988 10.4879 16.2028 10.2309L16.2638 9.53094C21.3418 9.96994 21.3418 10.7799 21.3418 11.0849C21.3408 12.7969 12.1878 12.8459 11.1438 12.8459Z" fill="#2F2E41"/>
<path d="M11.1438 32.184C10.0998 32.184 0.943848 32.135 0.943848 30.426C0.943848 28.717 10.0968 28.668 11.1438 28.668V29.368C5.75284 29.368 2.25684 29.9679 1.69484 30.4229C2.25784 30.8739 5.75384 31.478 11.1438 31.478C16.5338 31.478 20.0148 30.878 20.5898 30.426C20.3168 30.233 19.1988 29.826 16.2028 29.569L16.2638 28.869C21.3418 29.308 21.3418 30.1179 21.3418 30.4229C21.3408 32.1359 12.1878 32.184 11.1438 32.184Z" fill="#2F2E41"/>
<path d="M11.1438 51.876C10.0998 51.876 0.943848 51.827 0.943848 50.118C0.943848 48.409 10.0968 48.36 11.1438 48.36V49.06C5.75284 49.06 2.25684 49.66 1.69484 50.115C2.25784 50.566 5.75384 51.17 11.1438 51.17C16.5338 51.17 20.0148 50.57 20.5898 50.118C20.3168 49.925 19.1988 49.518 16.2028 49.261L16.2638 48.561C21.3418 49 21.3418 49.81 21.3418 50.115C21.3408 51.825 12.1878 51.876 11.1438 51.876Z" fill="#2F2E41"/>
<path d="M11.1438 71.564C10.0998 71.564 0.943848 71.515 0.943848 69.806C0.943848 68.097 10.0968 68.048 11.1438 68.048V68.748C5.75284 68.748 2.25684 69.348 1.69484 69.803C2.25784 70.254 5.75384 70.858 11.1438 70.858C16.5338 70.858 20.0148 70.258 20.5898 69.806C20.3168 69.613 19.1988 69.206 16.2028 68.949L16.2638 68.249C21.3418 68.688 21.3418 69.498 21.3418 69.803C21.3408 71.516 12.1878 71.564 11.1438 71.564Z" fill="#2F2E41"/>
<path d="M11.1438 91.256C10.0998 91.256 0.943848 91.207 0.943848 89.498C0.943848 87.789 10.0968 87.74 11.1438 87.74V88.44C5.75284 88.44 2.25684 89.04 1.69484 89.495C2.25784 89.946 5.75384 90.55 11.1438 90.55C16.5338 90.55 20.0148 89.95 20.5898 89.498C20.3168 89.305 19.1988 88.898 16.2028 88.641L16.2638 87.941C21.3418 88.38 21.3418 89.19 21.3418 89.495C21.3408 91.205 12.1878 91.256 11.1438 91.256Z" fill="#2F2E41"/>
<path d="M11.1438 110.943C10.0998 110.943 0.943848 110.894 0.943848 109.185C0.943848 107.476 10.0968 107.427 11.1438 107.427V108.127C5.75284 108.127 2.25684 108.727 1.69484 109.182C2.25784 109.633 5.75384 110.237 11.1438 110.237C16.5338 110.237 20.0148 109.637 20.5898 109.185C20.3168 108.992 19.1988 108.585 16.2028 108.328L16.2638 107.628C21.3418 108.067 21.3418 108.877 21.3418 109.182C21.3408 110.895 12.1878 110.943 11.1438 110.943Z" fill="#2F2E41"/>
<path d="M11.1438 130.635C10.0998 130.635 0.943848 130.586 0.943848 128.877C0.943848 127.168 10.0968 127.119 11.1438 127.119V127.819C5.75284 127.819 2.25684 128.419 1.69484 128.874C2.25784 129.325 5.75384 129.929 11.1438 129.929C16.5338 129.929 20.0148 129.329 20.5898 128.877C20.3168 128.684 19.1988 128.277 16.2028 128.02L16.2638 127.32C21.3418 127.759 21.3418 128.569 21.3418 128.874C21.3408 130.583 12.1878 130.635 11.1438 130.635Z" fill="#2F2E41"/>
<path d="M11.1438 150.323C10.0998 150.323 0.943848 150.274 0.943848 148.565C0.943848 146.856 10.0968 146.807 11.1438 146.807V147.507C5.75284 147.507 2.25684 148.107 1.69484 148.562C2.25784 149.013 5.75384 149.617 11.1438 149.617C16.5338 149.617 20.0148 149.017 20.5898 148.565C20.3168 148.372 19.1988 147.965 16.2028 147.708L16.2638 147.008C21.3418 147.447 21.3418 148.257 21.3418 148.562C21.3408 150.275 12.1878 150.323 11.1438 150.323Z" fill="#2F2E41"/>
<path d="M11.1438 170.015C10.0998 170.015 0.943848 169.966 0.943848 168.257C0.943848 166.548 10.0968 166.499 11.1438 166.499V167.199C5.75284 167.199 2.25684 167.799 1.69484 168.254C2.25784 168.705 5.75384 169.309 11.1438 169.309C16.5338 169.309 20.0148 168.709 20.5898 168.257C20.3168 168.064 19.1988 167.657 16.2028 167.4L16.2638 166.7C21.3418 167.139 21.3418 167.949 21.3418 168.254C21.3408 169.963 12.1878 170.015 11.1438 170.015Z" fill="#2F2E41"/>
<path d="M11.1438 189.703C10.0998 189.703 0.943848 189.654 0.943848 187.945C0.943848 186.236 10.0968 186.187 11.1438 186.187V186.887C5.75284 186.887 2.25684 187.487 1.69484 187.942C2.25784 188.393 5.75384 188.997 11.1438 188.997C16.5338 188.997 20.0148 188.397 20.5898 187.945C20.3168 187.752 19.1988 187.345 16.2028 187.088L16.2638 186.388C21.3418 186.827 21.3418 187.637 21.3418 187.942C21.3408 189.655 12.1878 189.703 11.1438 189.703Z" fill="#2F2E41"/>
<path d="M11.1438 209.395C10.0998 209.395 0.943848 209.346 0.943848 207.637C0.943848 205.928 10.0968 205.879 11.1438 205.879V206.579C5.75284 206.579 2.25684 207.179 1.69484 207.634C2.25784 208.085 5.75384 208.689 11.1438 208.689C16.5338 208.689 20.0148 208.089 20.5898 207.637C20.3168 207.444 19.1988 207.037 16.2028 206.78L16.2638 206.08C21.3418 206.519 21.3418 207.329 21.3418 207.634C21.3408 209.343 12.1878 209.395 11.1438 209.395Z" fill="#2F2E41"/>
<path d="M135.084 83.694H57.7318C57.126 83.6932 56.5453 83.4522 56.1169 83.0239C55.6886 82.5955 55.4476 82.0148 55.4468 81.409V51.17C55.4476 50.5642 55.6886 49.9835 56.1169 49.5551C56.5453 49.1268 57.126 48.8858 57.7318 48.885H135.084C135.69 48.8858 136.27 49.1268 136.699 49.5551C137.127 49.9835 137.368 50.5642 137.369 51.17V81.408C137.368 82.014 137.127 82.595 136.699 83.0235C136.271 83.4521 135.69 83.6932 135.084 83.694Z" fill="white"/>
<path d="M106.254 59.258H86.5639C86.0977 59.258 85.6505 59.0727 85.3208 58.743C84.9911 58.4134 84.8059 57.9662 84.8059 57.5C84.8059 57.0337 84.9911 56.5866 85.3208 56.2569C85.6505 55.9272 86.0977 55.7419 86.5639 55.7419H106.254C106.72 55.7419 107.167 55.9272 107.497 56.2569C107.827 56.5866 108.012 57.0337 108.012 57.5C108.012 57.9662 107.827 58.4134 107.497 58.743C107.167 59.0727 106.72 59.258 106.254 59.258Z" fill="#FF7070"/>
<path d="M117.153 68.048H75.6628C75.1965 68.048 74.7494 67.8627 74.4197 67.5331C74.09 67.2034 73.9048 66.7562 73.9048 66.29C73.9048 65.8237 74.09 65.3766 74.4197 65.0469C74.7494 64.7172 75.1965 64.532 75.6628 64.532H117.152C117.618 64.532 118.065 64.7172 118.395 65.0469C118.725 65.3766 118.91 65.8237 118.91 66.29C118.91 66.7562 118.725 67.2034 118.395 67.5331C118.065 67.8627 117.618 68.048 117.152 68.048H117.153Z" fill="#FF7070"/>
<path d="M117.153 76.837H75.6628C75.1965 76.837 74.7494 76.6518 74.4197 76.3221C74.09 75.9925 73.9048 75.5453 73.9048 75.079C73.9048 74.6128 74.09 74.1656 74.4197 73.8359C74.7494 73.5062 75.1965 73.321 75.6628 73.321H117.152C117.618 73.321 118.065 73.5062 118.395 73.8359C118.725 74.1656 118.91 74.6128 118.91 75.079C118.91 75.5453 118.725 75.9925 118.395 76.3221C118.065 76.6518 117.618 76.837 117.152 76.837H117.153Z" fill="#FF7070"/>
<path d="M318.088 73.891C319.187 73.8914 320.263 73.5813 321.193 72.9966C322.123 72.4119 322.869 71.5762 323.345 70.586C323.821 69.5957 324.008 68.4912 323.883 67.3996C323.759 66.308 323.329 65.2737 322.642 64.416C319.77 60.827 313.482 61.376 310.966 57.528C308.834 54.267 310.803 49.789 313.642 47.122C316.443 44.4905 319.986 42.7848 323.789 42.2362C327.593 41.6877 331.474 42.3231 334.904 44.056C338.334 45.789 341.148 48.5356 342.963 51.9229C344.778 55.3102 345.507 59.1741 345.051 62.99C344.706 65.874 343.906 69.375 346.144 71.226C348.131 72.869 351.067 71.937 353.562 71.289C357.263 70.3562 361.122 70.2349 364.874 70.9335C368.626 71.632 372.183 73.1339 375.3 75.336C380.6 79.136 384.465 85.271 384.467 91.793C384.469 98.315 380.028 104.887 373.667 106.347C367.437 107.778 361.014 104.298 356.607 99.668C352.2 95.038 349.174 89.278 345.157 84.305C341.14 79.332 335.582 74.951 329.191 74.836C325.491 74.769 321.433 76.073 318.291 74.113" fill="#2F2E41"/>
<path d="M320.836 76.488C327.668 76.488 333.207 70.9493 333.207 64.117C333.207 57.2847 327.668 51.746 320.836 51.746C314.004 51.746 308.465 57.2847 308.465 64.117C308.465 70.9493 314.004 76.488 320.836 76.488Z" fill="#FFB8B8"/>
<path d="M294.52 146.186C294.302 145.478 294.241 144.732 294.343 143.998C294.445 143.265 294.706 142.563 295.109 141.941C295.511 141.32 296.045 140.794 296.672 140.401C297.3 140.008 298.006 139.758 298.741 139.667L302.52 122.067L309.073 128.741L304.48 144.43C304.55 145.675 304.162 146.902 303.388 147.88C302.614 148.857 301.508 149.517 300.28 149.733C299.052 149.949 297.787 149.708 296.725 149.054C295.664 148.4 294.879 147.379 294.52 146.185V146.186Z" fill="#FFB8B8"/>
<path d="M358.064 222.622L351.995 223.76L333.695 163.66L346.682 161.979L358.064 222.622Z" fill="#FFB8B8"/>
<path d="M347.334 222.84L359.038 220.644L360.421 228.016L341.346 231.594C340.979 229.639 341.404 227.619 342.527 225.977C343.65 224.335 345.379 223.207 347.334 222.84V222.84Z" fill="#2F2E41"/>
<path d="M318.292 225.858H312.117L311.194 170.206H324.337L318.292 225.858Z" fill="#FFB8B8"/>
<path d="M307.706 224.095H319.615V231.595H300.208C300.208 229.606 300.998 227.699 302.404 226.292C303.81 224.886 305.717 224.096 307.706 224.095Z" fill="#2F2E41"/>
<path d="M308.353 177.78L308.92 150.58C308.877 150.197 304.42 108.992 302.753 98.4629C301.064 87.7629 309.793 82.2779 309.881 82.2239C310.272 82.0639 310.625 81.9239 310.981 81.7979C315.11 80.2354 319.596 79.8727 323.923 80.7518C328.249 81.6309 332.238 83.7159 335.43 86.7659C338.735 89.8152 341.124 93.7255 342.329 98.0576C343.534 102.39 343.507 106.972 342.252 111.29L339.173 121.95C354.948 150.469 358.185 162.742 358.216 162.862L358.225 162.899V162.937C357.659 174.247 310.634 177.62 308.633 177.759L308.353 177.78Z" fill="#FF7070"/>
<path d="M304.684 93.377L294.027 135.443L313.097 137.686L304.684 93.377Z" fill="#FF7070"/>
<path d="M330.446 128.148C330.576 127.419 330.865 126.727 331.291 126.122C331.718 125.517 332.272 125.012 332.915 124.644C333.557 124.276 334.273 124.054 335.011 123.992C335.749 123.93 336.491 124.031 337.186 124.288L348.61 110.378L351.376 119.313L340.104 131.152C339.594 132.288 338.687 133.198 337.552 133.71C336.417 134.222 335.135 134.301 333.946 133.931C332.757 133.562 331.745 132.77 331.1 131.705C330.455 130.641 330.223 129.376 330.447 128.152L330.446 128.148Z" fill="#FFB8B8"/>
<path d="M345.365 128.182L335.422 121.749L344.886 111.728L319.225 103.918L325.825 84.6849L333.947 85.8449L354.592 101.138C357.217 103.097 358.969 106.008 359.471 109.245C359.973 112.482 359.185 115.787 357.277 118.449L357.232 118.497L345.365 128.182Z" fill="#FF7070"/>
<path d="M309.696 57.085C315.019 60.3347 321.02 62.3124 327.233 62.864L325.384 60.649C326.731 61.1469 328.149 61.4281 329.584 61.482C330.302 61.5025 331.014 61.3546 331.665 61.0502C332.315 60.7458 332.886 60.2933 333.33 59.729C333.692 59.1426 333.908 58.4772 333.958 57.7896C334.007 57.102 333.89 56.4125 333.616 55.78C333.052 54.5185 332.176 53.4221 331.069 52.595C329.107 51.043 326.791 50.0006 324.329 49.5605C321.866 49.1205 319.333 49.2966 316.955 50.073C315.324 50.5593 313.863 51.495 312.739 52.773C311.674 54.087 309.35 55.273 309.895 56.873L309.696 57.085Z" fill="#2F2E41"/>
<path d="M400.4 232.001H247.129C246.97 232.001 246.817 231.938 246.705 231.825C246.592 231.713 246.529 231.56 246.529 231.401C246.529 231.242 246.592 231.089 246.705 230.977C246.817 230.864 246.97 230.801 247.129 230.801H400.4C400.559 230.801 400.712 230.864 400.824 230.977C400.937 231.089 401 231.242 401 231.401C401 231.56 400.937 231.713 400.824 231.825C400.712 231.938 400.559 232.001 400.4 232.001Z" fill="#D8BCBC"/>
</svg>
